# xmcd
#
# Track frame offsets: 
#        150
#        30089
#        48993
#        84762
#        109122
#        133850
#        148567
#        171580
#        192504
#        221157
#        236312
#        259640
#
# Disc length: 3682 seconds
#
# Revision: 0
# Processed by: cddbd v1.5.2PL0 Copyright (c) Steve Scherf et al.
# Submitted via: ExactAudioCopyFreeDBPlugin 1.0
#
DISCID=a20e600c
DTITLE=Mo Calaz - Nature Calls
DYEAR=2012
DGENRE=Soul
TTITLE0=Ratracer
TTITLE1=Prayer
TTITLE2=Put a Light on
TTITLE3=Another Road
TTITLE4=Nature Calls
TTITLE5=To you
TTITLE6=Climb
TTITLE7=Ride the Vibes
TTITLE8=All through the Rain
TTITLE9=Break it down
TTITLE10=Shine
TTITLE11=Path of Freedom
EXTD=
EXTT0=
EXTT1=
EXTT2=
EXTT3=
EXTT4=
EXTT5=
EXTT6=
EXTT7=
EXTT8=
EXTT9=
EXTT10=
EXTT11=
PLAYORDER=
